<svg xmlns="http://www.w3.org/2000/svg" width="88.781" height="29.362" viewBox="0 0 88.781 29.362"><defs><style>.a{fill:#fff;}</style></defs><g transform="translate(-5.1 -294.8)"><g transform="translate(36.203 297.513)"><path class="a" d="M231.41,350.239h-8.283a4.194,4.194,0,0,1,4-3.1,4.069,4.069,0,0,1,4.28,3.1m-8.327,2.843H235.24v-.769a8.426,8.426,0,0,0-1.407-4.976,8.3,8.3,0,0,0-6.586-3.438,7.918,7.918,0,0,0-7.747,7.993,8.273,8.273,0,0,0,2.263,5.571,7.7,7.7,0,0,0,5.7,2.336,7.581,7.581,0,0,0,7.311-5.179H230.96a4.029,4.029,0,0,1-3.612,1.871c-2.481.087-4.091-1.277-4.265-3.409" transform="translate(-219.5 -339.49)"/><path class="a" d="M344.512,326.048a4.344,4.344,0,0,1,4.338-4.541,4.467,4.467,0,0,1,4.41,4.468,4.4,4.4,0,0,1-4.6,4.468,4.309,4.309,0,0,1-4.149-4.4m-.131-6.47V313.5H340.9v20.063h3.482V332.33a7.319,7.319,0,0,0,4.715,1.61,7.743,7.743,0,0,0,4.976-1.741,8.125,8.125,0,0,0,2.843-6.209,7.882,7.882,0,0,0-2.6-5.9,7.329,7.329,0,0,0-5.237-2,6.784,6.784,0,0,0-4.7,1.494" transform="translate(-323.289 -313.5)"/><path class="a" d="M468,318.432h3.366v15.131H468Zm0-4.932h3.366v3.366H468Z" transform="translate(-431.951 -313.5)"/><path class="a" d="M510.954,352.547a4.294,4.294,0,0,1,4.338-4.338,4.45,4.45,0,0,1,4.265,4.541,4.3,4.3,0,1,1-8.6-.2m8.994,7.776h3.366V345.192h-3.366v1.813a5.364,5.364,0,0,0-4.8-2.205,7.312,7.312,0,0,0-5.614,2.336,7.978,7.978,0,0,0-2.133,5.571,7.71,7.71,0,0,0,7.819,7.95c2.336,0,3.873-.638,4.715-2.205v1.871Z" transform="translate(-465.635 -340.259)"/></g><path class="a" d="M5.231,324.162h9.226l9.981-9.952,9.952,9.952h9.342L29.109,309.539,43.862,294.8H34.52L24.438,304.9,14.413,294.8H5.1l14.666,14.739Z"/></g></svg>