<?xml version="1.0" encoding="UTF-8"?>
<svg xmlns="http://www.w3.org/2000/svg" viewBox="0 0 64 64" width="64px" height="64px">
<g id="surface40740819">
<path style=" stroke:none;fill-rule:nonzero;fill:rgb(80.000001%,80.000001%,80.000001%);fill-opacity:1;" d="M 32 32.320312 C 31.824219 32.320312 31.679688 32.175781 31.679688 32 C 31.679688 31.824219 31.824219 31.679688 32 31.679688 C 32.175781 31.679688 32.320312 31.824219 32.320312 32 C 32.320312 32.175781 32.175781 32.320312 32 32.320312 Z M 32 32.320312 "/>
<path style=" stroke:none;fill-rule:nonzero;fill:rgb(100%,100%,100%);fill-opacity:1;" d="M 32 13 C 42.488281 13 51 21.511719 51 32 C 51 42.488281 42.488281 51 32 51 C 21.511719 51 13 42.488281 13 32 C 13 21.511719 21.511719 13 32 13 "/>
<path style=" stroke:none;fill-rule:nonzero;fill:rgb(90.196079%,90.588236%,90.588236%);fill-opacity:1;" d="M 32 13 C 31.925781 13 31.847656 13 31.773438 13 C 31.203125 13 30.59375 13.039062 30.023438 13.113281 C 29.910156 13.113281 29.757812 13.152344 29.644531 13.152344 C 38.992188 14.328125 46.25 22.308594 46.25 32 C 46.25 41.691406 38.992188 49.671875 29.644531 50.847656 C 29.835938 50.886719 30.023438 50.886719 30.253906 50.925781 C 30.707031 50.960938 31.203125 51 31.65625 51 C 31.773438 51 31.886719 51 32 51 C 42.488281 51 51 42.488281 51 32 C 51 21.511719 42.488281 13 32 13 "/>
<path style=" stroke:none;fill-rule:nonzero;fill:rgb(27.058825%,29.411766%,32.941177%);fill-opacity:1;" d="M 32 52.140625 C 20.902344 52.140625 11.859375 43.097656 11.859375 32 C 11.859375 20.902344 20.902344 11.859375 32 11.859375 C 43.097656 11.859375 52.140625 20.902344 52.140625 32 C 52.140625 43.097656 43.097656 52.140625 32 52.140625 Z M 32 14.140625 C 22.15625 14.140625 14.140625 22.15625 14.140625 32 C 14.140625 41.84375 22.15625 49.859375 32 49.859375 C 41.84375 49.859375 49.859375 41.84375 49.859375 32 C 49.859375 22.15625 41.84375 14.140625 32 14.140625 Z M 32 14.140625 "/>
<path style=" stroke:none;fill-rule:nonzero;fill:rgb(27.058825%,29.411766%,32.941177%);fill-opacity:1;" d="M 32 23.90625 C 31.355469 23.90625 30.859375 24.398438 30.859375 25.046875 C 30.859375 25.691406 31.355469 26.1875 32 26.1875 C 32.644531 26.1875 33.140625 25.691406 33.140625 25.046875 C 33.140625 24.398438 32.644531 23.90625 32 23.90625 Z M 32 43.019531 C 31.355469 43.019531 30.859375 42.527344 30.859375 41.878906 L 30.859375 31.355469 C 30.859375 30.707031 31.355469 30.214844 32 30.214844 C 32.644531 30.214844 33.140625 30.707031 33.140625 31.355469 L 33.140625 41.878906 C 33.140625 42.527344 32.644531 43.019531 32 43.019531 Z M 32 43.019531 "/>
</g>
</svg>
