<svg width="22" height="24" viewBox="0 0 22 24" fill="none" xmlns="http://www.w3.org/2000/svg">
<path d="M20.44 11.55L11.25 20.74C10.1241 21.8659 8.59717 22.4984 7.00498 22.4984C5.4128 22.4984 3.88583 21.8659 2.75998 20.74C1.63414 19.6142 1.00165 18.0872 1.00165 16.495C1.00165 14.9029 1.63414 13.3759 2.75998 12.25L11.95 3.06004C12.7005 2.30948 13.7185 1.88782 14.78 1.88782C15.8414 1.88782 16.8594 2.30948 17.61 3.06004C18.3605 3.8106 18.7822 4.82859 18.7822 5.89004C18.7822 6.9515 18.3605 7.96948 17.61 8.72004L8.40998 17.91C8.0347 18.2853 7.52571 18.4962 6.99498 18.4962C6.46426 18.4962 5.95527 18.2853 5.57998 17.91C5.2047 17.5348 4.99387 17.0258 4.99387 16.495C4.99387 15.9643 5.2047 15.4553 5.57998 15.08L14.07 6.60004" stroke="#8C8C8C" stroke-width="2" stroke-linecap="round" stroke-linejoin="round"/>
</svg>
